<?xml version="1.0" encoding="iso-8859-1"?>
<!-- Generator: Adobe Illustrator 18.0.0, SVG Export Plug-In . SVG Version: 6.00 Build 0)  -->
<!DOCTYPE svg PUBLIC "-//W3C//DTD SVG 1.1//EN" "http://www.w3.org/Graphics/SVG/1.1/DTD/svg11.dtd">
<svg version="1.1" id="Capa_1" xmlns="http://www.w3.org/2000/svg" xmlns:xlink="http://www.w3.org/1999/xlink" x="0px" y="0px"
	 viewBox="0 0 493.422 493.422" style="enable-background:new 0 0 493.422 493.422;" xml:space="preserve">
<g>
	<path d="M489.321,205.026c-5.827-6.71-16.944-7.509-23.638-1.698l-39.919,34.55l-80.896-13.097
		c-4.043-9.61-9.348-19.218-15.759-28.258l43.961-12.925c3.9-1.145,6.649-4.855,6.412-9.087c-0.285-4.935-4.516-8.701-9.444-8.424
		l-63.556,3.607c-0.553,0.04-1.122,0.197-1.706,0.293c-12.428-10.446-26.64-18.159-41.925-21.491l-7.153-52.481
		c-0.537-3.941-3.648-7.209-7.769-7.77c-0.016,0-0.016,0-0.032,0c-4.974-0.679-9.553,2.795-10.232,7.77l-7.153,52.481
		c-15.302,3.339-29.529,11.061-41.972,21.523c-0.553-0.095-1.074-0.292-1.657-0.325l-63.559-3.607
		c-4.059-0.229-7.896,2.345-9.095,6.403c-1.389,4.744,1.326,9.711,6.063,11.108l43.962,12.925
		c-6.411,9.048-11.732,18.665-15.775,28.281l-80.802,13.138l-39.997-34.613c-6.68-5.811-17.78-5.037-23.655,1.714
		c-5.102,5.905-5.464,14.456-0.443,21.341l47.279,54.715c3.331,3.884,7.942,6.466,12.979,7.272l88.096,14.267
		c16.739,25.131,48.999,42.777,86.66,45.02v8.55c-4.722,2.811-8.053,7.753-8.068,13.659l-0.032,19.202
		c-0.015,8.931,7.216,16.178,16.139,16.194c0.016,0,0.016,0,0.03,0c8.923,0,16.156-7.225,16.17-16.145l0.032-19.202
		c0.016-5.93-3.332-10.905-8.101-13.723v-8.534c37.661-2.243,69.921-19.889,86.66-45.028l88.082-14.258
		c5.053-0.805,9.663-3.388,12.963-7.241l47.751-55.299C494.799,219.498,494.437,210.947,489.321,205.026z M66.413,272.405
		c-1.279-0.205-2.431-0.852-3.3-1.856l-46.014-54.998l45.309,39.128l27.502-4.419l5.669,26.868L66.413,272.405z M112.679,279.899
		l-6.773-32.167l36.807-5.811c-1.926,7.485-3.063,14.773-3.063,21.507c0,7.414,1.342,14.567,3.616,21.42L112.679,279.899z
		 M246.68,323.725c-17.339,0-33.397-3.931-46.709-10.596c30.509-7.437,62.911-7.437,93.419,0
		C280.077,319.794,264.018,323.725,246.68,323.725z M310.786,301.09c-40.482-12.56-86.349-13.777-128.21,0.002
		c-11.49-10.358-18.67-23.348-18.67-37.664c0-34.898,38.688-92.628,82.774-92.628c44.088,0,82.776,57.73,82.776,92.628
		C329.456,277.743,322.275,290.733,310.786,301.09z M380.68,279.899l-30.587,4.95c2.273-6.853,3.617-14.006,3.617-21.42
		c0-6.68-1.106-13.902-3.017-21.316l36.699,5.936L380.68,279.899z M430.216,270.582c-0.838,0.972-1.989,1.619-3.284,1.824
		l-29.15,4.722l5.589-26.498l27.326,4.364l46.86-39.19L430.216,270.582z" fill="white"/>
	<path d="M210.108,236.837h73.112c6.694,0,12.127-5.433,12.127-12.128c0-6.696-5.433-12.127-12.127-12.127h-73.112
		c-6.696,0-12.127,5.432-12.127,12.127C197.981,231.404,203.413,236.837,210.108,236.837z" fill="white"/>
</g>
</svg>
